<svg width="1440" height="2350" viewBox="0 0 1440 2350" fill="none" xmlns="http://www.w3.org/2000/svg">
<path d="M1601.27 500.773C1565.46 585.802 1461.28 799.896 1191.17 816.226C806.819 839.462 820.659 363.991 666.658 269.493C512.657 174.995 36.3628 252.163 -79.9229 390.452" stroke="url(#paint0_radial_382_744)" stroke-width="106" stroke-linecap="round"/>
<path d="M1619.26 476.302C1583.45 561.331 1479.27 775.425 1209.16 791.755C824.813 814.991 838.653 339.52 684.651 245.022C530.65 150.524 54.3562 227.692 -61.9295 365.981" stroke="url(#paint1_radial_382_744)" stroke-width="106" stroke-linecap="round"/>
<path d="M1642.17 449.859C1606.36 534.888 1502.18 748.982 1232.07 765.312C847.72 788.548 861.56 313.077 707.559 218.579C553.558 124.081 77.2639 201.249 -39.0218 339.538" stroke="url(#paint2_radial_382_744)" stroke-width="106" stroke-linecap="round"/>
<path d="M1674.16 417.902C1638.35 502.931 1534.17 717.025 1264.06 733.354C879.716 756.591 893.556 281.12 739.555 186.622C585.554 92.1241 109.26 169.292 -7.02594 307.581" stroke="url(#paint3_radial_382_744)" stroke-width="106" stroke-linecap="round"/>
<path d="M1714.46 396.536C1678.64 481.565 1574.47 695.658 1304.36 711.988C920.008 735.225 933.848 259.754 779.847 165.256C625.846 70.7579 149.552 147.926 33.2664 286.214" stroke="url(#paint4_radial_382_744)" stroke-width="106" stroke-linecap="round"/>
<path d="M1607.87 541.312C1572.06 626.341 1467.88 840.434 1197.77 856.764C813.421 880.001 827.261 404.53 673.26 310.032C519.259 215.534 42.9648 292.702 -73.3209 430.991" stroke="url(#paint5_radial_382_744)" stroke-width="106" stroke-linecap="round"/>
<path d="M1589.54 570.588C1553.73 655.617 1449.55 869.711 1179.44 886.041C795.093 909.277 808.933 433.806 654.932 339.308C500.931 244.81 24.637 321.978 -91.6487 460.267" stroke="url(#paint6_radial_382_744)" stroke-width="106" stroke-linecap="round"/>
<path d="M1566.29 599.001C1530.48 684.03 1426.3 898.124 1156.19 914.454C771.84 937.69 785.68 462.219 631.679 367.721C477.678 273.223 1.38404 350.391 -114.902 488.68" stroke="url(#paint7_radial_382_744)" stroke-width="106" stroke-linecap="round"/>
<path d="M1538.7 634.776C1502.89 719.805 1398.71 933.899 1128.6 950.229C744.252 973.465 758.092 497.994 604.091 403.496C450.089 308.998 -26.2047 386.166 -142.49 524.455" stroke="url(#paint8_radial_382_744)" stroke-width="106" stroke-linecap="round"/>
<path d="M1510.64 667.424C1474.83 752.453 1370.65 966.547 1100.54 982.876C716.196 1006.11 730.036 530.642 576.035 436.144C422.034 341.646 -54.2605 418.814 -170.546 557.103" stroke="url(#paint9_radial_382_744)" stroke-width="106" stroke-linecap="round"/>
<g style="mix-blend-mode:screen">
<path d="M-53.3599 781.686C88.8186 674.278 401.058 526.601 512.586 795.164C624.114 1063.73 484.858 1291.59 401.288 1371.96L242.336 1493.73" stroke="url(#paint10_radial_382_744)" stroke-width="51" stroke-linecap="round"/>
</g>
<g style="mix-blend-mode:screen">
<path d="M-65.3599 800.686C76.8186 693.278 389.058 545.601 500.586 814.164C612.114 1082.73 472.858 1310.59 389.288 1390.96L230.336 1512.73" stroke="url(#paint11_radial_382_744)" stroke-width="51" stroke-linecap="round"/>
</g>
<g style="mix-blend-mode:screen">
<path d="M-65.3599 819.686C76.8186 712.278 389.058 564.601 500.586 833.164C612.114 1101.73 472.858 1329.59 389.288 1409.96L230.336 1531.73" stroke="url(#paint12_radial_382_744)" stroke-width="51" stroke-linecap="round"/>
</g>
<g style="mix-blend-mode:screen">
<path d="M-71.3599 825.686C70.8186 718.278 383.058 570.601 494.586 839.164C606.114 1107.73 466.858 1335.59 383.288 1415.96L224.336 1537.73" stroke="url(#paint13_radial_382_744)" stroke-width="51" stroke-linecap="round"/>
</g>
<g style="mix-blend-mode:screen">
<path d="M-74.3599 845.686C67.8186 738.278 380.058 590.601 491.586 859.164C603.114 1127.73 463.858 1355.59 380.288 1435.96L221.336 1557.73" stroke="url(#paint14_radial_382_744)" stroke-width="51" stroke-linecap="round"/>
</g>
<g style="mix-blend-mode:screen">
<path d="M-77.3599 867.686C64.8186 760.278 377.058 612.601 488.586 881.164C600.114 1149.73 460.858 1377.59 377.288 1457.96L218.336 1579.73" stroke="url(#paint15_radial_382_744)" stroke-width="51" stroke-linecap="round"/>
</g>
<g style="mix-blend-mode:screen">
<path d="M-91.3599 911.686C50.8186 804.278 363.058 656.601 474.586 925.164C586.114 1193.73 446.858 1421.59 363.288 1501.96L204.336 1623.73" stroke="url(#paint16_radial_382_744)" stroke-width="51" stroke-linecap="round"/>
</g>
<g style="mix-blend-mode:screen">
<path d="M-82.3599 895.686C59.8186 788.278 372.058 640.601 483.586 909.164C595.114 1177.73 455.858 1405.59 372.288 1485.96L213.336 1607.73" stroke="url(#paint17_radial_382_744)" stroke-width="51" stroke-linecap="round"/>
</g>
<g style="mix-blend-mode:screen">
<path d="M-73.3599 876.686C68.8186 769.278 381.058 621.601 492.586 890.164C604.114 1158.73 464.858 1386.59 381.288 1466.96L222.336 1588.73" stroke="url(#paint18_radial_382_744)" stroke-width="51" stroke-linecap="round"/>
</g>
<g style="mix-blend-mode:screen">
<path d="M-111.36 949.686C30.8186 842.278 343.058 694.601 454.586 963.164C566.114 1231.73 426.858 1459.59 343.288 1539.96L184.336 1661.73" stroke="url(#paint19_radial_382_744)" stroke-width="51" stroke-linecap="round"/>
</g>
<g style="mix-blend-mode:screen">
<path d="M-111.36 968.686C30.8186 861.278 343.058 713.601 454.586 982.164C566.114 1250.73 426.858 1478.59 343.288 1558.96L184.336 1680.73" stroke="url(#paint20_radial_382_744)" stroke-width="51" stroke-linecap="round"/>
</g>
<g style="mix-blend-mode:screen">
<path d="M-119.36 993.686C22.8186 886.278 335.058 738.601 446.586 1007.16C558.114 1275.73 418.858 1503.59 335.288 1583.96L176.336 1705.73" stroke="url(#paint21_radial_382_744)" stroke-width="51" stroke-linecap="round"/>
</g>
<g style="mix-blend-mode:screen" opacity="0.38">
<path d="M1681 1223C1501.5 1230.33 1091.2 1317.3 886 1606.5C680.8 1895.7 202.5 2003 -11 2020.5" stroke="url(#paint22_radial_382_744)" stroke-width="48" stroke-linecap="round"/>
<path d="M1688.5 1231.5C1509 1238.83 1098.7 1325.8 893.5 1615C688.3 1904.2 210 2011.5 -3.5 2029" stroke="url(#paint23_radial_382_744)" stroke-width="48" stroke-linecap="round"/>
<path d="M1698.5 1240.5C1519 1247.83 1108.7 1334.8 903.5 1624C698.3 1913.2 220 2020.5 6.5 2038" stroke="url(#paint24_radial_382_744)" stroke-width="48" stroke-linecap="round"/>
<path d="M1698.5 1254.5C1519 1261.83 1108.7 1348.8 903.5 1638C698.3 1927.2 220 2034.5 6.5 2052" stroke="url(#paint25_radial_382_744)" stroke-width="48" stroke-linecap="round"/>
<path d="M1703.5 1270.5C1524 1277.83 1113.7 1364.8 908.5 1654C703.3 1943.2 225 2050.5 11.5 2068" stroke="url(#paint26_radial_382_744)" stroke-width="48" stroke-linecap="round"/>
<path d="M1706.5 1292.5C1527 1299.83 1116.7 1386.8 911.5 1676C706.3 1965.2 228 2072.5 14.5 2090" stroke="url(#paint27_radial_382_744)" stroke-width="48" stroke-linecap="round"/>
<path d="M1711.5 1310.5C1532 1317.83 1121.7 1404.8 916.5 1694C711.3 1983.2 233 2090.5 19.5 2108" stroke="url(#paint28_radial_382_744)" stroke-width="48" stroke-linecap="round"/>
<path d="M1718.5 1333.5C1539 1340.83 1128.7 1427.8 923.5 1717C718.3 2006.2 240 2113.5 26.5 2131" stroke="url(#paint29_radial_382_744)" stroke-width="48" stroke-linecap="round"/>
<path d="M1725.5 1351.5C1546 1358.83 1135.7 1445.8 930.5 1735C725.3 2024.2 247 2131.5 33.5 2149" stroke="url(#paint30_radial_382_744)" stroke-width="48" stroke-linecap="round"/>
<path d="M1730.5 1365.5C1551 1372.83 1140.7 1459.8 935.5 1749C730.3 2038.2 252 2145.5 38.5 2163" stroke="url(#paint31_radial_382_744)" stroke-width="48" stroke-linecap="round"/>
<path d="M1732.5 1384.5C1553 1391.83 1142.7 1478.8 937.5 1768C732.3 2057.2 254 2164.5 40.5 2182" stroke="url(#paint32_radial_382_744)" stroke-width="48" stroke-linecap="round"/>
<path d="M1734.5 1404.5C1555 1411.83 1144.7 1498.8 939.5 1788C734.3 2077.2 256 2184.5 42.5 2202" stroke="url(#paint33_radial_382_744)" stroke-width="48" stroke-linecap="round"/>
<path d="M1736.5 1435.5C1557 1442.83 1146.7 1529.8 941.5 1819C736.3 2108.2 258 2215.5 44.5 2233" stroke="url(#paint34_radial_382_744)" stroke-width="48" stroke-linecap="round"/>
<path d="M1738.5 1447.5C1559 1454.83 1148.7 1541.8 943.5 1831C738.3 2120.2 260 2227.5 46.5 2245" stroke="url(#paint35_radial_382_744)" stroke-width="48" stroke-linecap="round"/>
<path d="M1738.5 1476.5C1559 1483.83 1148.7 1570.8 943.5 1860C738.3 2149.2 260 2256.5 46.5 2274" stroke="url(#paint36_radial_382_744)" stroke-width="48" stroke-linecap="round"/>
<path d="M1748.5 1499.5C1569 1506.83 1158.7 1593.8 953.5 1883C748.3 2172.2 270 2279.5 56.5 2297" stroke="url(#paint37_radial_382_744)" stroke-width="48" stroke-linecap="round"/>
<path d="M1753.5 1521.5C1574 1528.83 1163.7 1615.8 958.5 1905C753.3 2194.2 275 2301.5 61.5 2319" stroke="url(#paint38_radial_382_744)" stroke-width="48" stroke-linecap="round"/>
<path d="M1758.5 1534.5C1579 1541.83 1168.7 1628.8 963.5 1918C758.3 2207.2 280 2314.5 66.5 2332" stroke="url(#paint39_radial_382_744)" stroke-width="48" stroke-linecap="round"/>
<path d="M1766.5 1554.5C1587 1561.83 1176.7 1648.8 971.5 1938C766.3 2227.2 288 2334.5 74.5 2352" stroke="url(#paint40_radial_382_744)" stroke-width="48" stroke-linecap="round"/>
<path d="M1781.5 1571.5C1602 1578.83 1191.7 1665.8 986.5 1955C781.3 2244.2 303 2351.5 89.5 2369" stroke="url(#paint41_radial_382_744)" stroke-width="48" stroke-linecap="round"/>
<path d="M1781.5 1596.5C1602 1603.83 1191.7 1690.8 986.5 1980C781.3 2269.2 303 2376.5 89.5 2394" stroke="url(#paint42_radial_382_744)" stroke-width="48" stroke-linecap="round"/>
<path d="M1791.5 1626.5C1612 1633.83 1201.7 1720.8 996.5 2010C791.3 2299.2 313 2406.5 99.5 2424" stroke="url(#paint43_radial_382_744)" stroke-width="48" stroke-linecap="round"/>
<path d="M1803.5 1658.5C1624 1665.83 1213.7 1752.8 1008.5 2042C803.3 2331.2 325 2438.5 111.5 2456" stroke="url(#paint44_radial_382_744)" stroke-width="48" stroke-linecap="round"/>
<path d="M1808.5 1680.5C1629 1687.83 1218.7 1774.8 1013.5 2064C808.3 2353.2 330 2460.5 116.5 2478" stroke="url(#paint45_radial_382_744)" stroke-width="48" stroke-linecap="round"/>
<path d="M1817.5 1700.5C1638 1707.83 1227.7 1794.8 1022.5 2084C817.3 2373.2 339 2480.5 125.5 2498" stroke="url(#paint46_radial_382_744)" stroke-width="48" stroke-linecap="round"/>
<path d="M1817.5 1720.5C1638 1727.83 1227.7 1814.8 1022.5 2104C817.3 2393.2 339 2500.5 125.5 2518" stroke="url(#paint47_radial_382_744)" stroke-width="48" stroke-linecap="round"/>
<path d="M1817.5 1741.5C1638 1748.83 1227.7 1835.8 1022.5 2125C817.3 2414.2 339 2521.5 125.5 2539" stroke="url(#paint48_radial_382_744)" stroke-width="48" stroke-linecap="round"/>
</g>
<defs>
<radialGradient id="paint0_radial_382_744" cx="0" cy="0" r="1" gradientUnits="userSpaceOnUse" gradientTransform="translate(749.529 509.203) rotate(-80.0613) scale(311.309 1098.24)">
<stop stop-color="#025578"/>
<stop offset="1" stop-opacity="0"/>
</radialGradient>
<radialGradient id="paint1_radial_382_744" cx="0" cy="0" r="1" gradientUnits="userSpaceOnUse" gradientTransform="translate(767.522 484.732) rotate(-80.0613) scale(311.309 1098.24)">
<stop stop-color="#025578"/>
<stop offset="1" stop-opacity="0"/>
</radialGradient>
<radialGradient id="paint2_radial_382_744" cx="0" cy="0" r="1" gradientUnits="userSpaceOnUse" gradientTransform="translate(790.43 458.289) rotate(-80.0613) scale(311.309 1098.24)">
<stop stop-color="#025578"/>
<stop offset="1" stop-opacity="0"/>
</radialGradient>
<radialGradient id="paint3_radial_382_744" cx="0" cy="0" r="1" gradientUnits="userSpaceOnUse" gradientTransform="translate(822.426 426.332) rotate(-80.0613) scale(311.309 1098.24)">
<stop stop-color="#025578"/>
<stop offset="1" stop-opacity="0"/>
</radialGradient>
<radialGradient id="paint4_radial_382_744" cx="0" cy="0" r="1" gradientUnits="userSpaceOnUse" gradientTransform="translate(862.718 404.965) rotate(-80.0613) scale(311.309 1098.24)">
<stop stop-color="#025578"/>
<stop offset="1" stop-opacity="0"/>
</radialGradient>
<radialGradient id="paint5_radial_382_744" cx="0" cy="0" r="1" gradientUnits="userSpaceOnUse" gradientTransform="translate(756.131 549.741) rotate(-80.0613) scale(311.309 1098.24)">
<stop stop-color="#025578"/>
<stop offset="1" stop-opacity="0"/>
</radialGradient>
<radialGradient id="paint6_radial_382_744" cx="0" cy="0" r="1" gradientUnits="userSpaceOnUse" gradientTransform="translate(737.803 579.018) rotate(-80.0613) scale(311.309 1098.24)">
<stop stop-color="#025578"/>
<stop offset="1" stop-opacity="0"/>
</radialGradient>
<radialGradient id="paint7_radial_382_744" cx="0" cy="0" r="1" gradientUnits="userSpaceOnUse" gradientTransform="translate(714.55 607.431) rotate(-80.0613) scale(311.309 1098.24)">
<stop stop-color="#025578"/>
<stop offset="1" stop-opacity="0"/>
</radialGradient>
<radialGradient id="paint8_radial_382_744" cx="0" cy="0" r="1" gradientUnits="userSpaceOnUse" gradientTransform="translate(686.962 643.206) rotate(-80.0613) scale(311.309 1098.24)">
<stop stop-color="#025578"/>
<stop offset="1" stop-opacity="0"/>
</radialGradient>
<radialGradient id="paint9_radial_382_744" cx="0" cy="0" r="1" gradientUnits="userSpaceOnUse" gradientTransform="translate(658.906 675.854) rotate(-80.0613) scale(311.309 1098.24)">
<stop stop-color="#025578"/>
<stop offset="1" stop-opacity="0"/>
</radialGradient>
<radialGradient id="paint10_radial_382_744" cx="0" cy="0" r="1" gradientUnits="userSpaceOnUse" gradientTransform="translate(281.674 980.929) rotate(88.8618) scale(419.153 272.456)">
<stop stop-color="#43AAF5"/>
<stop offset="1" stop-color="#43AAF5" stop-opacity="0"/>
</radialGradient>
<radialGradient id="paint11_radial_382_744" cx="0" cy="0" r="1" gradientUnits="userSpaceOnUse" gradientTransform="translate(269.674 999.929) rotate(88.8618) scale(419.153 272.456)">
<stop stop-color="#43AAF5"/>
<stop offset="1" stop-color="#43AAF5" stop-opacity="0"/>
</radialGradient>
<radialGradient id="paint12_radial_382_744" cx="0" cy="0" r="1" gradientUnits="userSpaceOnUse" gradientTransform="translate(269.674 1018.93) rotate(88.8618) scale(419.153 272.456)">
<stop stop-color="#43AAF5"/>
<stop offset="1" stop-color="#43AAF5" stop-opacity="0"/>
</radialGradient>
<radialGradient id="paint13_radial_382_744" cx="0" cy="0" r="1" gradientUnits="userSpaceOnUse" gradientTransform="translate(263.674 1024.93) rotate(88.8618) scale(419.153 272.456)">
<stop stop-color="#43AAF5"/>
<stop offset="1" stop-color="#43AAF5" stop-opacity="0"/>
</radialGradient>
<radialGradient id="paint14_radial_382_744" cx="0" cy="0" r="1" gradientUnits="userSpaceOnUse" gradientTransform="translate(260.674 1044.93) rotate(88.8618) scale(419.153 272.456)">
<stop stop-color="#43AAF5"/>
<stop offset="1" stop-color="#43AAF5" stop-opacity="0"/>
</radialGradient>
<radialGradient id="paint15_radial_382_744" cx="0" cy="0" r="1" gradientUnits="userSpaceOnUse" gradientTransform="translate(257.674 1066.93) rotate(88.8618) scale(419.153 272.456)">
<stop stop-color="#43AAF5"/>
<stop offset="1" stop-color="#43AAF5" stop-opacity="0"/>
</radialGradient>
<radialGradient id="paint16_radial_382_744" cx="0" cy="0" r="1" gradientUnits="userSpaceOnUse" gradientTransform="translate(243.674 1110.93) rotate(88.8618) scale(419.153 272.456)">
<stop stop-color="#43AAF5"/>
<stop offset="1" stop-color="#43AAF5" stop-opacity="0"/>
</radialGradient>
<radialGradient id="paint17_radial_382_744" cx="0" cy="0" r="1" gradientUnits="userSpaceOnUse" gradientTransform="translate(252.674 1094.93) rotate(88.8618) scale(419.153 272.456)">
<stop stop-color="#43AAF5"/>
<stop offset="1" stop-color="#43AAF5" stop-opacity="0"/>
</radialGradient>
<radialGradient id="paint18_radial_382_744" cx="0" cy="0" r="1" gradientUnits="userSpaceOnUse" gradientTransform="translate(261.674 1075.93) rotate(88.8618) scale(419.153 272.456)">
<stop stop-color="#43AAF5"/>
<stop offset="1" stop-color="#43AAF5" stop-opacity="0"/>
</radialGradient>
<radialGradient id="paint19_radial_382_744" cx="0" cy="0" r="1" gradientUnits="userSpaceOnUse" gradientTransform="translate(223.674 1148.93) rotate(88.8618) scale(419.153 272.456)">
<stop stop-color="#43AAF5"/>
<stop offset="1" stop-color="#43AAF5" stop-opacity="0"/>
</radialGradient>
<radialGradient id="paint20_radial_382_744" cx="0" cy="0" r="1" gradientUnits="userSpaceOnUse" gradientTransform="translate(223.674 1167.93) rotate(88.8618) scale(419.153 272.456)">
<stop stop-color="#43AAF5"/>
<stop offset="1" stop-color="#43AAF5" stop-opacity="0"/>
</radialGradient>
<radialGradient id="paint21_radial_382_744" cx="0" cy="0" r="1" gradientUnits="userSpaceOnUse" gradientTransform="translate(215.674 1192.93) rotate(88.8618) scale(419.153 272.456)">
<stop stop-color="#43AAF5"/>
<stop offset="1" stop-color="#43AAF5" stop-opacity="0"/>
</radialGradient>
<radialGradient id="paint22_radial_382_744" cx="0" cy="0" r="1" gradientUnits="userSpaceOnUse" gradientTransform="translate(835 1621.75) rotate(93.5096) scale(628.93 1334.36)">
<stop stop-color="#780270"/>
<stop offset="1" stop-color="#260024" stop-opacity="0"/>
</radialGradient>
<radialGradient id="paint23_radial_382_744" cx="0" cy="0" r="1" gradientUnits="userSpaceOnUse" gradientTransform="translate(842.5 1630.25) rotate(93.5096) scale(628.93 1334.36)">
<stop stop-color="#780270"/>
<stop offset="1" stop-color="#260024" stop-opacity="0"/>
</radialGradient>
<radialGradient id="paint24_radial_382_744" cx="0" cy="0" r="1" gradientUnits="userSpaceOnUse" gradientTransform="translate(852.5 1639.25) rotate(93.5096) scale(628.93 1334.36)">
<stop stop-color="#780270"/>
<stop offset="1" stop-color="#260024" stop-opacity="0"/>
</radialGradient>
<radialGradient id="paint25_radial_382_744" cx="0" cy="0" r="1" gradientUnits="userSpaceOnUse" gradientTransform="translate(852.5 1653.25) rotate(93.5096) scale(628.93 1334.36)">
<stop stop-color="#780270"/>
<stop offset="1" stop-color="#260024" stop-opacity="0"/>
</radialGradient>
<radialGradient id="paint26_radial_382_744" cx="0" cy="0" r="1" gradientUnits="userSpaceOnUse" gradientTransform="translate(857.5 1669.25) rotate(93.5096) scale(628.93 1334.36)">
<stop stop-color="#780270"/>
<stop offset="1" stop-color="#260024" stop-opacity="0"/>
</radialGradient>
<radialGradient id="paint27_radial_382_744" cx="0" cy="0" r="1" gradientUnits="userSpaceOnUse" gradientTransform="translate(860.5 1691.25) rotate(93.5096) scale(628.93 1334.36)">
<stop stop-color="#780270"/>
<stop offset="1" stop-color="#260024" stop-opacity="0"/>
</radialGradient>
<radialGradient id="paint28_radial_382_744" cx="0" cy="0" r="1" gradientUnits="userSpaceOnUse" gradientTransform="translate(865.5 1709.25) rotate(93.5096) scale(628.93 1334.36)">
<stop stop-color="#780270"/>
<stop offset="1" stop-color="#260024" stop-opacity="0"/>
</radialGradient>
<radialGradient id="paint29_radial_382_744" cx="0" cy="0" r="1" gradientUnits="userSpaceOnUse" gradientTransform="translate(872.5 1732.25) rotate(93.5096) scale(628.93 1334.36)">
<stop stop-color="#780270"/>
<stop offset="1" stop-color="#260024" stop-opacity="0"/>
</radialGradient>
<radialGradient id="paint30_radial_382_744" cx="0" cy="0" r="1" gradientUnits="userSpaceOnUse" gradientTransform="translate(879.5 1750.25) rotate(93.5096) scale(628.93 1334.36)">
<stop stop-color="#780270"/>
<stop offset="1" stop-color="#260024" stop-opacity="0"/>
</radialGradient>
<radialGradient id="paint31_radial_382_744" cx="0" cy="0" r="1" gradientUnits="userSpaceOnUse" gradientTransform="translate(884.5 1764.25) rotate(93.5096) scale(628.93 1334.36)">
<stop stop-color="#780270"/>
<stop offset="1" stop-color="#260024" stop-opacity="0"/>
</radialGradient>
<radialGradient id="paint32_radial_382_744" cx="0" cy="0" r="1" gradientUnits="userSpaceOnUse" gradientTransform="translate(886.5 1783.25) rotate(93.5096) scale(628.93 1334.36)">
<stop stop-color="#780270"/>
<stop offset="1" stop-color="#260024" stop-opacity="0"/>
</radialGradient>
<radialGradient id="paint33_radial_382_744" cx="0" cy="0" r="1" gradientUnits="userSpaceOnUse" gradientTransform="translate(888.5 1803.25) rotate(93.5096) scale(628.93 1334.36)">
<stop stop-color="#780270"/>
<stop offset="1" stop-color="#260024" stop-opacity="0"/>
</radialGradient>
<radialGradient id="paint34_radial_382_744" cx="0" cy="0" r="1" gradientUnits="userSpaceOnUse" gradientTransform="translate(890.5 1834.25) rotate(93.5096) scale(628.93 1334.36)">
<stop stop-color="#780270"/>
<stop offset="1" stop-color="#260024" stop-opacity="0"/>
</radialGradient>
<radialGradient id="paint35_radial_382_744" cx="0" cy="0" r="1" gradientUnits="userSpaceOnUse" gradientTransform="translate(892.5 1846.25) rotate(93.5096) scale(628.93 1334.36)">
<stop stop-color="#780270"/>
<stop offset="1" stop-color="#260024" stop-opacity="0"/>
</radialGradient>
<radialGradient id="paint36_radial_382_744" cx="0" cy="0" r="1" gradientUnits="userSpaceOnUse" gradientTransform="translate(892.5 1875.25) rotate(93.5096) scale(628.93 1334.36)">
<stop stop-color="#780270"/>
<stop offset="1" stop-color="#260024" stop-opacity="0"/>
</radialGradient>
<radialGradient id="paint37_radial_382_744" cx="0" cy="0" r="1" gradientUnits="userSpaceOnUse" gradientTransform="translate(902.5 1898.25) rotate(93.5096) scale(628.93 1334.36)">
<stop stop-color="#780270"/>
<stop offset="1" stop-color="#260024" stop-opacity="0"/>
</radialGradient>
<radialGradient id="paint38_radial_382_744" cx="0" cy="0" r="1" gradientUnits="userSpaceOnUse" gradientTransform="translate(907.5 1920.25) rotate(93.5096) scale(628.93 1334.36)">
<stop stop-color="#780270"/>
<stop offset="1" stop-color="#260024" stop-opacity="0"/>
</radialGradient>
<radialGradient id="paint39_radial_382_744" cx="0" cy="0" r="1" gradientUnits="userSpaceOnUse" gradientTransform="translate(912.5 1933.25) rotate(93.5096) scale(628.93 1334.36)">
<stop stop-color="#780270"/>
<stop offset="1" stop-color="#260024" stop-opacity="0"/>
</radialGradient>
<radialGradient id="paint40_radial_382_744" cx="0" cy="0" r="1" gradientUnits="userSpaceOnUse" gradientTransform="translate(920.5 1953.25) rotate(93.5096) scale(628.93 1334.36)">
<stop stop-color="#780270"/>
<stop offset="1" stop-color="#260024" stop-opacity="0"/>
</radialGradient>
<radialGradient id="paint41_radial_382_744" cx="0" cy="0" r="1" gradientUnits="userSpaceOnUse" gradientTransform="translate(935.5 1970.25) rotate(93.5096) scale(628.93 1334.36)">
<stop stop-color="#780270"/>
<stop offset="1" stop-color="#260024" stop-opacity="0"/>
</radialGradient>
<radialGradient id="paint42_radial_382_744" cx="0" cy="0" r="1" gradientUnits="userSpaceOnUse" gradientTransform="translate(935.5 1995.25) rotate(93.5096) scale(628.93 1334.36)">
<stop stop-color="#780270"/>
<stop offset="1" stop-color="#260024" stop-opacity="0"/>
</radialGradient>
<radialGradient id="paint43_radial_382_744" cx="0" cy="0" r="1" gradientUnits="userSpaceOnUse" gradientTransform="translate(945.5 2025.25) rotate(93.5096) scale(628.93 1334.36)">
<stop stop-color="#780270"/>
<stop offset="1" stop-color="#260024" stop-opacity="0"/>
</radialGradient>
<radialGradient id="paint44_radial_382_744" cx="0" cy="0" r="1" gradientUnits="userSpaceOnUse" gradientTransform="translate(957.5 2057.25) rotate(93.5096) scale(628.93 1334.36)">
<stop stop-color="#780270"/>
<stop offset="1" stop-color="#260024" stop-opacity="0"/>
</radialGradient>
<radialGradient id="paint45_radial_382_744" cx="0" cy="0" r="1" gradientUnits="userSpaceOnUse" gradientTransform="translate(962.5 2079.25) rotate(93.5096) scale(628.93 1334.36)">
<stop stop-color="#780270"/>
<stop offset="1" stop-color="#260024" stop-opacity="0"/>
</radialGradient>
<radialGradient id="paint46_radial_382_744" cx="0" cy="0" r="1" gradientUnits="userSpaceOnUse" gradientTransform="translate(971.5 2099.25) rotate(93.5096) scale(628.93 1334.36)">
<stop stop-color="#780270"/>
<stop offset="1" stop-color="#260024" stop-opacity="0"/>
</radialGradient>
<radialGradient id="paint47_radial_382_744" cx="0" cy="0" r="1" gradientUnits="userSpaceOnUse" gradientTransform="translate(971.5 2119.25) rotate(93.5096) scale(628.93 1334.36)">
<stop stop-color="#780270"/>
<stop offset="1" stop-color="#260024" stop-opacity="0"/>
</radialGradient>
<radialGradient id="paint48_radial_382_744" cx="0" cy="0" r="1" gradientUnits="userSpaceOnUse" gradientTransform="translate(971.5 2140.25) rotate(93.5096) scale(628.93 1334.36)">
<stop stop-color="#780270"/>
<stop offset="1" stop-color="#260024" stop-opacity="0"/>
</radialGradient>
</defs>
</svg>
