<svg width="1440" height="1022" viewBox="0 0 1440 1022" fill="none" xmlns="http://www.w3.org/2000/svg">
<path d="M-60.5002 625.5C-39.9024 535.566 25.7607 306.705 289 244C663.568 154.776 732 625.5 900 692C1068 758.5 1523.83 600.284 1614.5 444" stroke="url(#paint0_radial_64_256)" stroke-width="106" stroke-linecap="round"/>
<path d="M-74 652.709C-53.4022 562.775 12.2609 333.914 275.5 271.209C650.068 181.985 718.5 652.709 886.5 719.209C1054.5 785.709 1510.33 627.493 1601 471.209" stroke="url(#paint1_radial_64_256)" stroke-width="106" stroke-linecap="round"/>
<path d="M-92 682.709C-71.4022 592.775 -5.73911 363.914 257.5 301.209C632.068 211.985 700.5 682.709 868.5 749.209C1036.5 815.709 1492.33 657.493 1583 501.209" stroke="url(#paint2_radial_64_256)" stroke-width="106" stroke-linecap="round"/>
<path d="M-118 719.709C-97.4022 629.775 -31.7391 400.914 231.5 338.209C606.068 248.985 674.5 719.709 842.5 786.209C1010.5 852.709 1466.33 694.493 1557 538.209" stroke="url(#paint3_radial_64_256)" stroke-width="106" stroke-linecap="round"/>
<path d="M-154 747.709C-133.402 657.775 -67.7391 428.914 195.5 366.209C570.068 276.985 638.5 747.709 806.5 814.209C974.5 880.709 1430.33 722.493 1521 566.209" stroke="url(#paint4_radial_64_256)" stroke-width="106" stroke-linecap="round"/>
<path d="M-74 586.709C-53.4022 496.775 12.2609 267.914 275.5 205.209C650.068 115.985 718.5 586.709 886.5 653.209C1054.5 719.709 1510.33 561.493 1601 405.209" stroke="url(#paint5_radial_64_256)" stroke-width="106" stroke-linecap="round"/>
<path d="M-61 554.709C-40.4022 464.775 25.2609 235.914 288.5 173.209C663.068 83.9849 731.5 554.709 899.5 621.209C1067.5 687.709 1523.33 529.493 1614 373.209" stroke="url(#paint6_radial_64_256)" stroke-width="106" stroke-linecap="round"/>
<path d="M-43 522.709C-22.4022 432.775 43.2609 203.914 306.5 141.209C681.068 51.9849 749.5 522.709 917.5 589.209C1085.5 655.709 1541.33 497.493 1632 341.209" stroke="url(#paint7_radial_64_256)" stroke-width="106" stroke-linecap="round"/>
<path d="M-22 482.709C-1.40219 392.775 64.2609 163.914 327.5 101.209C702.068 11.9849 770.5 482.709 938.5 549.209C1106.5 615.709 1562.33 457.493 1653 301.209" stroke="url(#paint8_radial_64_256)" stroke-width="106" stroke-linecap="round"/>
<path d="M0 445.709C20.5978 355.775 86.2609 126.914 349.5 64.2089C724.068 -25.0151 792.5 445.709 960.5 512.209C1128.5 578.709 1584.33 420.493 1675 264.209" stroke="url(#paint9_radial_64_256)" stroke-width="106" stroke-linecap="round"/>
<path d="M-104.857 1176.84L4.65422 693.504L366.901 1025.01L-104.857 1176.84Z" fill="url(#paint10_linear_64_256)"/>
<defs>
<radialGradient id="paint0_radial_64_256" cx="0" cy="0" r="1" gradientUnits="userSpaceOnUse" gradientTransform="translate(777 470.191) rotate(90) scale(311.309 1098.24)">
<stop stop-color="#780270"/>
<stop offset="1" stop-opacity="0"/>
</radialGradient>
<radialGradient id="paint1_radial_64_256" cx="0" cy="0" r="1" gradientUnits="userSpaceOnUse" gradientTransform="translate(763.5 497.4) rotate(90) scale(311.309 1098.24)">
<stop stop-color="#780270"/>
<stop offset="1" stop-opacity="0"/>
</radialGradient>
<radialGradient id="paint2_radial_64_256" cx="0" cy="0" r="1" gradientUnits="userSpaceOnUse" gradientTransform="translate(745.5 527.4) rotate(90) scale(311.309 1098.24)">
<stop stop-color="#780270"/>
<stop offset="1" stop-opacity="0"/>
</radialGradient>
<radialGradient id="paint3_radial_64_256" cx="0" cy="0" r="1" gradientUnits="userSpaceOnUse" gradientTransform="translate(719.5 564.4) rotate(90) scale(311.309 1098.24)">
<stop stop-color="#780270"/>
<stop offset="1" stop-opacity="0"/>
</radialGradient>
<radialGradient id="paint4_radial_64_256" cx="0" cy="0" r="1" gradientUnits="userSpaceOnUse" gradientTransform="translate(683.5 592.4) rotate(90) scale(311.309 1098.24)">
<stop stop-color="#780270"/>
<stop offset="1" stop-opacity="0"/>
</radialGradient>
<radialGradient id="paint5_radial_64_256" cx="0" cy="0" r="1" gradientUnits="userSpaceOnUse" gradientTransform="translate(763.5 431.4) rotate(90) scale(311.309 1098.24)">
<stop stop-color="#780270"/>
<stop offset="1" stop-opacity="0"/>
</radialGradient>
<radialGradient id="paint6_radial_64_256" cx="0" cy="0" r="1" gradientUnits="userSpaceOnUse" gradientTransform="translate(776.5 399.4) rotate(90) scale(311.309 1098.24)">
<stop stop-color="#780270"/>
<stop offset="1" stop-opacity="0"/>
</radialGradient>
<radialGradient id="paint7_radial_64_256" cx="0" cy="0" r="1" gradientUnits="userSpaceOnUse" gradientTransform="translate(794.5 367.4) rotate(90) scale(311.309 1098.24)">
<stop stop-color="#780270"/>
<stop offset="1" stop-opacity="0"/>
</radialGradient>
<radialGradient id="paint8_radial_64_256" cx="0" cy="0" r="1" gradientUnits="userSpaceOnUse" gradientTransform="translate(815.5 327.4) rotate(90) scale(311.309 1098.24)">
<stop stop-color="#780270"/>
<stop offset="1" stop-opacity="0"/>
</radialGradient>
<radialGradient id="paint9_radial_64_256" cx="0" cy="0" r="1" gradientUnits="userSpaceOnUse" gradientTransform="translate(837.5 290.4) rotate(90) scale(311.309 1098.24)">
<stop stop-color="#780270"/>
<stop offset="1" stop-opacity="0"/>
</radialGradient>
<linearGradient id="paint10_linear_64_256" x1="-104.857" y1="1176.84" x2="112" y2="803.5" gradientUnits="userSpaceOnUse">
<stop stop-color="#EB03B1"/>
<stop offset="1" stop-color="#EB03B1" stop-opacity="0"/>
</linearGradient>
</defs>
</svg>
